<?xml version="1.0" encoding="UTF-8" standalone="no"?>
<!-- Uploaded to: SVG Repo, www.svgrepo.com, Generator: SVG Repo Mixer Tools -->

<svg
   fill="#000000"
   height="36"
   width="36"
   version="1.1"
   id="Capa_1"
   viewBox="0 0 2.655 2.655"
   xml:space="preserve"
   sodipodi:docname="pluginIcon.svg"
   inkscape:version="1.2.2 (732a01da63, 2022-12-09)"
   xmlns:inkscape="http://www.inkscape.org/namespaces/inkscape"
   xmlns:sodipodi="http://sodipodi.sourceforge.net/DTD/sodipodi-0.dtd"
   xmlns="http://www.w3.org/2000/svg"
   xmlns:svg="http://www.w3.org/2000/svg"
   xmlns:rdf="http://www.w3.org/1999/02/22-rdf-syntax-ns#"
   xmlns:cc="http://creativecommons.org/ns#"
   xmlns:dc="http://purl.org/dc/elements/1.1/"><title
   id="title12191">Colorized Windows Icon</title><defs
   id="defs82" /><sodipodi:namedview
   id="namedview80"
   pagecolor="#ffffff"
   bordercolor="#666666"
   borderopacity="1.0"
   inkscape:showpageshadow="2"
   inkscape:pageopacity="0.0"
   inkscape:pagecheckerboard="0"
   inkscape:deskcolor="#d1d1d1"
   showgrid="false"
   inkscape:zoom="14.856313"
   inkscape:cx="7.1686694"
   inkscape:cy="23.962876"
   inkscape:window-width="2560"
   inkscape:window-height="1369"
   inkscape:window-x="-8"
   inkscape:window-y="-8"
   inkscape:window-maximized="1"
   inkscape:current-layer="g77" />
<g
   id="g77"
   style="stroke-width:0.999976;stroke-dasharray:none">
	<path
   d="M 2.3059331,2.1629371 V 1.1263415 c 0,-0.47300927 -0.436672,-0.85787217 -0.9733553,-0.85787217 -0.53668333,0 -0.97335538,0.3848629 -0.97335538,0.85787217 v 1.0365956 h -0.0811126 v 0.214468 H 2.3870457 V 2.1629371 Z M 0.44033583,1.1263415 c 0,-0.43361863 0.4002514,-0.78638282 0.89224197,-0.78638282 0.4919905,0 0.8922419,0.35276419 0.8922419,0.78638282 V 2.1629371 H 0.44033583 Z M 2.3059331,2.3059158 H 0.35922242 V 2.2344264 H 2.3059331 Z"
   id="path43"
   style="stroke-width:0.0380737;stroke-dasharray:none" />
	<path
   d="m 1.3325778,0.37570335 c -0.44222762,0 -0.80658661,0.2986825 -0.84758972,0.67914885 h -0.00413 v 0.071489 0.4289361 0.071489 0.5004255 H 1.2919869 1.3731003 2.1842296 V 1.626767 1.5552776 1.1263415 1.0548522 h -0.00413 C 2.1391643,0.67438585 1.7748054,0.37570335 1.3325778,0.37570335 Z M 2.098811,1.0548522 H 1.4304809 L 1.8852,0.65408287 C 2.0020835,0.76031605 2.080277,0.89975603 2.098811,1.0548522 Z M 1.8259067,0.60525565 1.3325778,1.0400539 0.83924879,0.60525565 C 0.97300378,0.50670759 1.145004,0.4471927 1.3325778,0.4471927 c 0.1875738,0 0.3595732,0.0595189 0.4933289,0.15806295 z M 0.77995553,0.65408287 1.2346747,1.0548522 H 0.56634455 C 0.58487618,0.89975603 0.66307202,0.76031605 0.77995553,0.65408287 Z M 0.56200515,1.1263415 H 1.2920211 V 1.5552776 H 0.56200515 Z m 0,0.9293616 V 1.626767 H 1.2920211 v 0.4289361 z m 1.54114525,0 H 1.3731345 V 1.626767 H 2.1031504 Z M 1.3731345,1.5552776 V 1.1263415 h 0.7300159 v 0.4289361 z"
   id="path45"
   style="fill:#000000;fill-opacity:1;stroke-width:0.0380737;stroke-dasharray:none" />
	<path
   d="m 1.2633483,0.90140028 c 0.00794,0.00699 0.018293,0.0104772 0.028675,0.0104772 0.010382,0 0.020764,-0.003495 0.028675,-0.0104772 l 0.081113,-0.0714894 c 0.015855,-0.0139801 0.015855,-0.0365628 0,-0.050543 -0.015855,-0.0139801 -0.041488,-0.0139801 -0.05735,0 l -0.081113,0.0714894 c -0.015855,0.0139801 -0.015855,0.0365708 0,0.050543 z"
   id="path47"
   style="stroke-width:0.0380737;stroke-dasharray:none" />
	<ellipse
   cx="1.4542474"
   cy="0.73314983"
   id="circle49"
   style="stroke-width:0.0380737;stroke-dasharray:none"
   rx="0.040556461"
   ry="0.035744678" />
	<ellipse
   cx="1.2920212"
   cy="0.73314983"
   id="circle51"
   style="stroke-width:0.0380737;stroke-dasharray:none"
   rx="0.040556461"
   ry="0.035744678" />
	<path
   d="m 0.69555758,1.2440487 -0.0811134,0.071489 c -0.0158547,0.01398 -0.0158547,0.036563 0,0.050543 0.007943,0.00699 0.0182933,0.010477 0.0286752,0.010477 0.0103818,0 0.0207637,-0.0035 0.0286752,-0.010477 l 0.0811126,-0.071489 c 0.0158548,-0.01398 0.0158548,-0.036563 0,-0.050543 -0.0158548,-0.01398 -0.0414876,-0.01398 -0.0573496,0 z"
   id="path53"
   style="stroke-width:0.0380737;stroke-dasharray:none" />
	<ellipse
   cx="0.80534405"
   cy="1.1978314"
   id="circle55"
   style="stroke-width:0.0380737;stroke-dasharray:none"
   rx="0.040556461"
   ry="0.035744678" />
	<ellipse
   cx="0.64311785"
   cy="1.1978314"
   id="circle57"
   style="stroke-width:0.0380737;stroke-dasharray:none"
   rx="0.040556461"
   ry="0.035744678" />
	<path
   d="m 1.1011222,1.8874529 -0.081113,0.071489 c -0.015855,0.01398 -0.015855,0.036563 0,0.050543 0.00794,0.00699 0.018293,0.010477 0.028675,0.010477 0.010382,0 0.020764,-0.0035 0.028675,-0.010477 l 0.081113,-0.071489 c 0.015855,-0.01398 0.015855,-0.036563 0,-0.050543 -0.015855,-0.01398 -0.041488,-0.01398 -0.05735,0 z"
   id="path59"
   style="stroke-width:0.0380737;stroke-dasharray:none" />
	<ellipse
   cx="1.2109081"
   cy="1.8412352"
   id="circle61"
   style="stroke-width:0.0380737;stroke-dasharray:none"
   rx="0.040556461"
   ry="0.035744678" />
	<ellipse
   cx="1.0486819"
   cy="1.8412352"
   id="circle63"
   style="stroke-width:0.0380737;stroke-dasharray:none"
   rx="0.040556461"
   ry="0.035744678" />
	<path
   d="m 1.8598118,2.0199584 c 0.010382,0 0.020764,-0.0035 0.028675,-0.010477 l 0.081113,-0.071489 c 0.015855,-0.01398 0.015855,-0.036563 0,-0.050543 -0.015855,-0.01398 -0.041488,-0.01398 -0.05735,0 l -0.081113,0.071489 c -0.015855,0.01398 -0.015855,0.036563 0,0.050543 0.00794,0.00699 0.018293,0.010477 0.028675,0.010477 z"
   id="path65"
   style="stroke-width:0.0380737;stroke-dasharray:none" />
	<ellipse
   cx="2.0220377"
   cy="1.8412352"
   id="circle67"
   style="stroke-width:0.0380737;stroke-dasharray:none"
   rx="0.040556461"
   ry="0.035744678" />
	<ellipse
   cx="1.8598114"
   cy="1.8412352"
   id="circle69"
   style="stroke-width:0.0380737;stroke-dasharray:none"
   rx="0.040556461"
   ry="0.035744678" />
	<path
   d="m 1.9122516,1.2440487 -0.081113,0.071489 c -0.015855,0.01398 -0.015855,0.036563 0,0.050543 0.00794,0.00699 0.018293,0.010477 0.028675,0.010477 0.010382,0 0.020764,-0.0035 0.028675,-0.010477 l 0.081113,-0.071489 c 0.015855,-0.01398 0.015855,-0.036563 0,-0.050543 -0.015855,-0.01398 -0.041488,-0.01398 -0.05735,0 z"
   id="path71"
   style="stroke-width:0.0380737;stroke-dasharray:none" />
	<ellipse
   cx="2.0220377"
   cy="1.1978314"
   id="circle73"
   style="stroke-width:0.0380737;stroke-dasharray:none"
   rx="0.040556461"
   ry="0.035744678" />
	<ellipse
   cx="1.8598114"
   cy="1.1978314"
   id="circle75"
   style="stroke-width:0.0380737;stroke-dasharray:none"
   rx="0.040556461"
   ry="0.035744678" />
<path
   style="fill:#ff0000;fill-opacity:1;stroke:#000000;stroke-width:0.0296582;stroke-dasharray:none;stroke-opacity:1"
   d="m 1.6599363,0.85461527 0.2248332,-0.19828763 0.018349,0.0170701 c 0.021876,0.0203506 0.062283,0.0673112 0.082106,0.0954272 0.053808,0.0763189 0.091904,0.16594664 0.1067781,0.25122556 0.00207,0.011859 0.00421,0.0241 0.00477,0.027206 l 0.00103,0.00564 H 1.7664324 1.4350641 Z"
   id="path5582" /><path
   style="fill:#d45500;fill-opacity:1;stroke:#000000;stroke-width:0.0296582;stroke-dasharray:none;stroke-opacity:1"
   d="M 1.0868267,0.8219351 C 0.87254218,0.63306739 0.84156505,0.60500623 0.84483926,0.60272492 c 0.002065,-0.00143 0.0135671,-0.009198 0.0255694,-0.0172369 C 0.98333403,0.50980462 1.1202265,0.4628385 1.2621092,0.45111186 c 0.038271,-0.003177 0.1407093,-0.00143 0.1733616,0.002939 0.1217353,0.0163075 0.2253678,0.0511308 0.3234838,0.10869877 0.0219,0.0128522 0.063848,0.0407013 0.063991,0.0424806 4.45e-5,5.6715e-4 -0.1102715,0.0982875 -0.2451473,0.21715685 L 1.3325699,1.0385288 Z m 0.2224519,0.0874108 c 0.014099,-0.005799 0.099925,-0.0830603 0.103654,-0.0933182 0.010183,-0.0280159 -0.020954,-0.0554598 -0.052735,-0.046484 -0.011637,0.003257 -0.099305,0.0789242 -0.1058805,0.0913562 -0.016244,0.0307087 0.020128,0.0627597 0.054967,0.0484459 z M 1.308771,0.76669369 c 0.040296,-0.0151955 0.028461,-0.0693288 -0.015243,-0.0697259 -0.022741,-2.0653e-4 -0.03924,0.0116845 -0.042663,0.0307563 -0.0027,0.0152034 0.00795,0.0329963 0.023345,0.0389061 0.00931,0.003574 0.025164,0.003574 0.034553,6.116e-5 z m 0.1703663,-0.004051 c 0.035109,-0.0235994 0.00914,-0.0736579 -0.033799,-0.0651586 -0.027341,0.005401 -0.040399,0.0313441 -0.027015,0.0536567 0.011121,0.0185396 0.041734,0.0243302 0.060814,0.0115019 z"
   id="path7109" /><path
   style="fill:#ffcc00;fill-opacity:1;stroke:#000000;stroke-width:0.0296582;stroke-dasharray:none;stroke-opacity:1"
   d="m 0.56869496,1.0452027 c 0.0198105,-0.12672838 0.0692811,-0.23256042 0.15477365,-0.33112596 0.0112636,-0.0129872 0.0286831,-0.0312965 0.0386996,-0.0406854 L 0.78038208,0.65632128 1.0052153,0.85461527 1.2300478,1.0529093 H 0.89877162 0.56749076 Z"
   id="path7906" /><path
   style="fill:#225500;fill-opacity:1;stroke:#000000;stroke-width:0.0296582;stroke-dasharray:none;stroke-opacity:1"
   d="M 0.56253814,1.3403917 V 1.1268284 H 0.92717116 1.2918042 V 1.3403917 1.553955 H 0.92717116 0.56253814 Z m 0.0973494,0.033806 c 0.0109061,-0.00397 0.0944096,-0.076708 0.10110739,-0.088063 0.009913,-0.016816 0.001748,-0.041035 -0.0167285,-0.049447 -0.008571,-0.00389 -0.0309072,-0.00397 -0.0391364,-1.358e-4 -0.009564,0.00445 -0.0977545,0.083514 -0.10054103,0.090111 -0.0130984,0.031003 0.0207716,0.060115 0.055301,0.047532 z m 0.005322,-0.1452568 c 0.0126457,-0.00755 0.0184601,-0.016824 0.0184601,-0.029581 0,-0.014441 -0.004448,-0.023393 -0.0152987,-0.030677 -0.007784,-0.00524 -0.0106916,-0.00596 -0.025474,-0.00596 -0.0145123,0 -0.0177373,7.165e-4 -0.0249021,0.00556 -0.0118196,0.00794 -0.0166014,0.018047 -0.0154179,0.032536 0.001112,0.01371 0.009381,0.025228 0.0213912,0.029835 0.0119228,0.00461 0.032059,0.00373 0.0412414,-0.00175 z m 0.16498312,-0.00135 c 0.0155688,-0.00977 0.0207081,-0.030343 0.0116845,-0.046778 -0.012185,-0.022178 -0.0497725,-0.02603 -0.0679705,-0.00699 -0.0166411,0.017428 -0.0121929,0.041956 0.0100085,0.055245 0.0110491,0.00659 0.0345691,0.00588 0.0462854,-0.00151 z"
   id="path8703" /><path
   style="fill:#00ffff;fill-opacity:1;stroke:#000000;stroke-width:0.0296582;stroke-dasharray:none;stroke-opacity:1"
   d="M 1.3733513,1.3403917 V 1.1268284 h 0.3646331 0.364633 V 1.3403917 1.553955 H 1.7379844 1.3733513 Z m 0.5051041,0.032996 c 0.011136,-0.00508 0.09735,-0.081483 0.1005641,-0.08909 0.00437,-0.010342 0.00302,-0.026753 -0.00286,-0.034426 -0.00879,-0.011494 -0.019,-0.016268 -0.034776,-0.016268 -0.00755,0 -0.016585,0.00135 -0.020041,0.00294 -0.00903,0.00421 -0.094817,0.081012 -0.099259,0.088849 -0.00723,0.012693 -0.00405,0.029493 0.00747,0.040399 0.012503,0.01178 0.032853,0.014941 0.048875,0.00763 z m 0.00302,-0.144449 c 0.021947,-0.013035 0.026324,-0.037723 0.00977,-0.055071 -0.018198,-0.019064 -0.055793,-0.015211 -0.06797,0.00699 -0.010866,0.019787 -0.00103,0.044077 0.020748,0.05129 0.00191,6.363e-4 0.00937,0.00119 0.016546,0.00135 0.00993,1.231e-4 0.014933,-9.532e-4 0.020915,-0.00453 z m 0.1591854,0.00183 c 0.026721,-0.00984 0.030041,-0.047779 0.00556,-0.063189 -0.00628,-0.00397 -0.010572,-0.00477 -0.024116,-0.00477 -0.014473,0 -0.017539,7.038e-4 -0.025045,0.00572 -0.011597,0.00778 -0.015545,0.015354 -0.015545,0.029779 0,0.013901 0.0054,0.0229 0.01846,0.030645 0.00926,0.00548 0.028389,0.00635 0.040725,0.00183 z"
   id="path9500" /><path
   style="fill:#0000ff;fill-opacity:1;stroke:#000000;stroke-width:0.0296582;stroke-dasharray:none;stroke-opacity:1"
   d="M 0.56253814,1.8414439 V 1.6278806 H 0.92717116 1.2918042 V 1.8414439 2.0550072 H 0.92717116 0.56253814 Z M 1.0676644,2.0171552 c 0.00956,-0.00445 0.097755,-0.083514 0.1005419,-0.090111 0.00413,-0.00975 0.00286,-0.024251 -0.00286,-0.033195 -0.00994,-0.015473 -0.035419,-0.022225 -0.053617,-0.01421 -0.01031,0.00453 -0.094119,0.07813 -0.099651,0.087502 -0.011049,0.018722 -5.521e-4,0.044299 0.021129,0.05148 0.00699,0.0023 0.028342,0.00143 0.034482,-0.00143 z m 0.00421,-0.1453251 c 0.023266,-0.014052 0.023766,-0.047104 9.531e-4,-0.060424 -0.016625,-0.0097 -0.036452,-0.00896 -0.050456,0.00191 -0.0309628,0.023965 -0.01012,0.067947 0.030439,0.064237 0.00635,-5.79e-4 0.014822,-0.0031 0.019096,-0.00572 z m 0.1558929,0.0027 c 0.040781,-0.016586 0.027714,-0.070234 -0.017046,-0.069996 -0.011915,6.27e-5 -0.026673,0.00643 -0.032988,0.01425 -0.025156,0.031138 0.011129,0.071569 0.050035,0.055746 z"
   id="path11820" /><path
   style="fill:#800080;fill-opacity:1;stroke:#000000;stroke-width:0.0296582;stroke-dasharray:none;stroke-opacity:1"
   d="M 1.3733513,1.8414439 V 1.6278806 h 0.3646331 0.364633 V 1.8414439 2.0550072 H 1.7379844 1.3733513 Z m 0.5051263,0.1757296 c 0.010779,-0.005 0.1001455,-0.085798 0.1019295,-0.092145 0.00278,-0.010017 -3.41e-5,-0.026999 -0.00572,-0.034021 -0.012296,-0.015219 -0.037905,-0.019207 -0.05627,-0.00876 -0.00572,0.00326 -0.029342,0.022877 -0.052545,0.04364 -0.045372,0.04059 -0.049089,0.045555 -0.046897,0.062672 0.00143,0.011343 0.010525,0.023647 0.020708,0.028064 0.00964,0.00421 0.030351,0.00445 0.038795,5.592e-4 z m 0.00397,-0.144951 c 0.027285,-0.014862 0.024648,-0.052171 -0.00453,-0.063848 -0.018365,-0.00739 -0.036547,-0.00405 -0.049614,0.0091 -0.024283,0.024378 -0.00151,0.063387 0.03503,0.060059 0.0062,-5.632e-4 0.014774,-0.00294 0.019103,-0.00532 z m 0.156062,0.0023 c 0.016792,-0.00683 0.024465,-0.017602 0.024465,-0.034347 0,-0.028977 -0.03692,-0.045276 -0.065198,-0.028778 -0.010866,0.00635 -0.016347,0.016379 -0.016347,0.029938 0,0.027317 0.029438,0.044427 0.05708,0.033179 z"
   id="path11822" /></g>
<metadata
   id="metadata12187"><rdf:RDF><cc:Work
       rdf:about=""><dc:title>Colorized Windows Icon</dc:title><dc:description>based off of https://www.svgrepo.com/svg/67443/window, CC0</dc:description></cc:Work></rdf:RDF></metadata></svg>
